<?xml version="1.0" encoding="utf-8"?>
<!-- Generator: Adobe Illustrator 23.0.1, SVG Export Plug-In . SVG Version: 6.00 Build 0)  -->
<svg version="1.1" id="Layer_1" xmlns="http://www.w3.org/2000/svg" xmlns:xlink="http://www.w3.org/1999/xlink" x="0px" y="0px"
	 viewBox="0 0 1000 1000" style="enable-background:new 0 0 1000 1000;" xml:space="preserve">
<style type="text/css">
	.st0{fill:#00AACE;}
	.st1{fill:#EC7F22;}
</style>
<g>
	<path class="st0" d="M511.2,859.9c-62.9-0.3-108.7-18.8-147.3-55.1c-24.5-23-49.2-45.8-73.1-69.4c-36.9-36.4-55.6-80.8-54.4-132.9
		c0.6-27.5,8.3-53.4,21.4-77.6c8.7-16,16-32.5,19.2-50.7c3.6-20.9,1.4-41.5-2.2-62.2c-8.5-48.9,35.7-92.8,85-84.6
		c36.2,6,59.1,28.6,65.7,64.7c1.2,6.4,2.4,12.8,3.3,19.2c0.7,5.1,2.7,4.5,5.6,1.7c5.9-5.6,11.9-11.1,17.8-16.7
		c62-59.1,123.9-118.2,185.9-177.3c23.2-22.1,53.9-27.5,82.7-14.8c26.3,11.6,44,39.7,43,69c-0.7,21.4-9.8,39.1-25.2,53.7
		c-33.2,31.6-66.3,63.2-99.4,94.8c-7.7,7.3-7.5,7.2,0.7,14c20,16.7,29.1,37.9,25.1,64c-0.8,5.3-0.2,8.5,5.3,11.5
		c29.9,16,44.8,49.4,36.7,82.6c-1.8,7.2-0.5,10.7,6.1,14.8c40,24.5,46.7,78.7,13.9,112.1c-14,14.3-29,27.7-43.5,41.6
		c-3,2.9-5.5,3.8-8.8,0.2c-9-9.8-18-19.5-27.4-28.9c-4.9-4.9-4.1-8.2,0.8-12.5c12.1-10.9,23.7-22.3,35.6-33.3
		c10.7-9.8,12.8-20,5.7-29.1c-7.4-9.4-18.8-10-30.2-1.8c-12.7,9.2-28.1,8.2-37.4-2.5c-10-11.5-9-27,2.8-38.5
		c7.3-7.2,14.9-14.2,22.3-21.4c5.9-5.8,9.7-12.7,8.3-21.1c-2.6-15.6-19.6-22.4-32.5-12.9c-5.8,4.3-11.7,7.9-19.2,7.7
		c-11.3-0.2-19.8-5.3-24.6-15.6c-4.8-10.2-3-21.2,4.9-29.3c6.8-7,14.1-13.5,21-20.4c8.3-8.2,9.4-15.9,3.5-22.8
		c-6.1-7.2-17.7-8.9-25.8-3.1c-6.5,4.7-12.9,8.8-21.4,8.5c-10.4-0.3-18.4-4.7-23.1-13.9c-4.8-9.3-4.4-18.9,1.5-27.8
		c3.8-5.7,9.3-9.8,14.2-14.4c49.2-46.9,98.4-93.9,147.6-140.8c3.6-3.4,6.8-7,7.9-12.1c2-9.1-1.4-17.5-8.7-21.8
		c-7-4.2-17.5-3-24.1,3.1c-20.1,18.9-40.2,38-60.2,57C555,373.1,493.8,431,432.7,489c-8.3,7.9-17.5,11.8-28.8,8
		c-11.2-3.7-16.9-11.9-18.8-23.3c-4.1-24-8.4-48-12.4-72c-1.7-10.3-6.4-17.6-17.1-20.3c-17.3-4.3-29.8,6.8-27.1,24.3
		c1.8,11.8,4,23.5,4.5,35.4c1.5,35.8-6.5,69.3-23.5,100.8c-8.2,15.1-15.1,30.5-17.5,47.8c-5.3,38.7,4.8,73.2,31.7,101
		c26.9,27.8,55.1,54.6,84.3,79.9c41,35.5,88.8,42.8,140.1,27.1c8.2-2.5,11.5-1,14.3,6.7c3.7,10.4,8.1,20.7,12.9,30.7
		c3.2,6.7,2,10.1-5.2,12.6C547.7,855.4,525,860.3,511.2,859.9z"/>
	<path class="st1" d="M421.6,162.1c0-18.4,0.2-36.8-0.1-55.3c-0.1-7.1,2.3-9.6,9.4-9.3c12.2,0.5,24.4,0.3,36.6,0.1
		c5.7-0.1,8.5,1.7,8.4,7.8c-0.6,37.9-1,75.8-1.4,113.7c0,4.4-1.8,6.4-6.3,6.3c-13-0.1-26-0.2-39,0c-6,0.1-8.1-2.3-8-8.2
		c0.2-18.4,0.1-36.8,0.1-55.3C421.5,162.1,421.5,162.1,421.6,162.1z"/>
	<path class="st1" d="M610.9,185.6c-1.5,1.9-2.7,3.7-4.2,5.2c-24.1,24.2-48.3,48.2-72.4,72.5c-3.7,3.8-6.4,3.7-10,0
		c-9.2-9.5-18.6-18.9-28.2-28.2c-3.7-3.5-4.1-6.2-0.2-10.1c24.4-24.2,48.7-48.6,73.1-72.9c2.7-2.7,5.2-4.8,8.8-1.2
		c10.1,10.2,20.3,20.3,30.4,30.5C609.3,182.5,610,184,610.9,185.6z"/>
	<path class="st1" d="M402,230.9c0,2.7-1.6,4-2.9,5.3c-9.5,9.6-19.2,19.1-28.6,28.8c-3.4,3.5-5.8,3.7-9.4,0.1
		c-23.9-23.9-48-47.7-72.2-71.4c-3.8-3.7-3.6-6.5,0-10.1c9.4-9.3,18.7-18.8,27.9-28.4c3.5-3.7,6.3-3.9,10.1-0.2
		c23.9,24,47.9,47.8,71.9,71.7C400.2,228.2,401.1,229.8,402,230.9z"/>
	<path class="st0" d="M652.5,788.6c0.2,2.4-1.1,3.5-2.3,4.6c-8.6,8.6-17.5,16.9-27,24.5c-3.6,2.9-6.1,2.3-8.7-1.3
		c-8.2-11.1-16.5-22.1-24.9-33c-2.7-3.5-2.4-5.8,1.1-8.7c7.4-6.3,14.5-13,21.6-19.6c2.9-2.7,5.3-4.5,8.8-0.7
		c9.7,10.5,19.6,20.8,29.4,31.3C651.4,786.6,652,787.9,652.5,788.6z"/>
</g>
</svg>
