<?xml version="1.0" encoding="utf-8"?>
<!-- Generator: Adobe Illustrator 23.0.1, SVG Export Plug-In . SVG Version: 6.00 Build 0)  -->
<svg version="1.1" id="Layer_1" xmlns="http://www.w3.org/2000/svg" xmlns:xlink="http://www.w3.org/1999/xlink" x="0px" y="0px"
	 viewBox="0 0 1000 1000" style="enable-background:new 0 0 1000 1000;" xml:space="preserve">
<style type="text/css">
	.st0{fill:#00AACE;}
	.st1{fill:#EC7F22;}
</style>
<g>
	<path class="st0" d="M215.7,651.3c-0.3-8.5,2.8-16.3,4.9-24.3c3.3-13.3,6.7-26.5,10.5-39.6c2-6.8,0.4-12.2-4.5-17.1
		c-12.6-12.5-25-25.1-37.5-37.7c-16.6-16.8-16.7-35.9-0.2-52.6c12-12.1,23.8-24.4,36.1-36.2c6.5-6.2,8.1-12.6,5.6-21.2
		c-4.7-15.9-8.6-32-12.8-48.1c-6.4-24.4,2.6-40.3,26.8-47c15.8-4.4,31.6-8.7,47.3-13c4.8-1.3,9.3-2.9,13.5-5.7
		c5.7-3.8,11.8-2.6,15.5,2.4c3.5,4.8,2.6,11.4-2.1,15.8c-4.7,4.4-10.4,6.8-16.6,8.5c-17.3,4.7-34.6,9.4-51.9,14.2
		c-11.4,3.2-13.6,7.1-10.5,18.7c4.5,17.3,8.9,34.7,13.8,52c4.1,14.5,0.2,26.4-10.2,36.8c-13.1,13.2-26.2,26.5-39.1,39.9
		c-6.6,6.8-6.6,11.2-0.1,17.9c12.9,13.4,25.9,26.7,39.1,39.9c10.4,10.4,14.3,22.3,10.3,36.8c-5,18.2-9.6,36.4-14.3,54.6
		c-2.2,8.5,0.4,13.2,9,15.6c17.9,5,35.8,10,53.8,14.8c14.6,3.8,23.6,12.8,27.5,27.4c4.7,17.8,9.6,35.5,14.6,53.2
		c2.6,9.4,7,12,16.4,9.6c17.8-4.6,35.6-9,53.3-14c14.7-4.2,26.8-0.6,37.4,10c13,13,26.2,25.8,39.4,38.6c7.1,6.9,11.4,7.3,18.4,0.5
		c13.6-13,27-26.3,40.3-39.6c10.3-10.2,22.1-13.7,36.2-9.8c18.2,5,36.4,9.7,54.6,14.3c8.5,2.2,13.3-0.5,15.7-9
		c5-17.9,10.1-35.8,14.7-53.8c3.8-14.6,12.7-23.7,27.4-27.5c17.4-4.5,34.6-9.3,51.9-14c10.8-3,13.4-7.5,10.6-18.3
		c-4.6-17.6-9.1-35.2-13.9-52.6c-4-14.4-0.3-26.3,10.2-36.8c13-13,25.8-26.2,38.6-39.4c7.1-7.3,7.1-11.7,0.1-18.9
		c-13-13.3-26-26.6-39.1-39.9c-10.1-10.3-13.9-22-9.9-36.2c4.8-17.3,9.2-34.6,13.7-52c3.1-12,0.7-16.1-11.6-19.4
		c-16.9-4.6-33.7-9.3-50.6-13.7c-14.6-3.8-23.6-12.8-27.5-27.4c-4.7-17.8-9.6-35.5-14.6-53.2c-2.7-9.5-7-12-16.4-9.6
		c-18,4.6-36,9.2-54,14.2c-14.5,4-26.4,0.2-36.8-10.2c-13.2-13.2-26.4-26.2-39.9-39.1c-6.9-6.6-11.1-6.6-17.9,0
		c-13.3,12.7-26.4,25.6-39.4,38.6c-10.7,10.9-22.9,14.8-37.9,10.5c-17.5-4.9-35.1-9.2-52.6-13.9c-4-1.1-7.7-1.3-11.8,0.2
		c-7.2,2.6-13.2,0-15.6-6.2c-2.3-6,0.7-11.9,7.6-15.1c7.7-3.5,15.7-3.5,23.7-1.4c17.8,4.5,35.6,9.1,53.3,14c7.4,2.1,13,0.3,18.2-5
		c12.6-12.8,25.4-25.4,38.1-38c15.6-15.4,35-15.4,50.7,0.1c12.3,12.1,24.7,24.2,36.7,36.6c6.5,6.7,13.2,8.6,22.4,5.8
		c16.5-5,33.3-9.1,50-13.3c21.4-5.4,37.8,4.4,43.7,25.7c4.8,17.5,9.8,35,14.4,52.5c1.8,6.9,5.6,10.6,12.5,12.4
		c17.8,4.6,35.5,9.6,53.2,14.5c20.2,5.6,30.2,22.4,25,42.9c-4.5,17.8-9,35.6-14,53.3c-2.1,7.4-0.3,13,5,18.2
		c12.8,12.6,25.4,25.3,38,38.1c15.3,15.6,15.3,35.1-0.1,50.7c-12.6,12.8-25.1,25.6-38,38.1c-5.4,5.3-7,10.8-4.9,18.2
		c4.7,16.6,8.6,33.4,13.4,50c7,24.3-6.3,42.7-27,47.1c-17.3,3.7-34.1,9.3-51.3,13.8c-6.4,1.6-9.9,5.1-11.6,11.5
		c-4.7,18-9.7,35.9-14.7,53.8c-5.6,20.3-22.3,30.2-42.9,25.2c-18.1-4.4-36.1-9.2-54-14.1c-6.8-1.9-12.1-0.5-17,4.5
		c-12.9,13.1-26,26-39.1,38.9c-15,14.7-34.7,14.8-49.7,0.2c-12.3-12.1-24.8-24-36.6-36.6c-6.9-7.3-13.9-9.1-23.5-6.2
		c-15.9,4.8-32,8.7-48.1,12.9c-22.9,5.9-39.1-3.5-45.5-26.5c-4.8-17.1-9.7-34.1-14-51.2c-1.8-7.2-5.8-10.9-13-12.7
		c-18-4.6-35.9-9.6-53.8-14.7C225.2,679.4,215.7,667,215.7,651.3z"/>
	<path class="st1" d="M482.8,495.2c-0.1,6.7-3.4,16.5-10.7,24.2c-4.5,4.8-3.3,7.5,0.7,11.5c10.6,10.6,20.8,21.6,31.2,32.5
		c2.8,3,5.4,6.2,5.6,10.4c0.2,4.7-2.1,8.2-6.2,10.4c-4.8,2.6-9.3,1.7-13-1.9c-5.9-5.8-11.6-11.9-17.3-17.9
		c-8.5-8.9-17-17.8-25.5-26.8c-4.6-4.8-8.8-0.4-12.9,0.9c-3.9,1.2-1.5,4.5-0.8,6.8c4.1,14,8.5,27.9,12.6,41.8c2.6,8.6-0.1,14.9-7,17
		c-6.4,1.9-12.3-1.9-14.8-10.1c-12.2-39.6-24.3-79.2-36.3-118.9c-2.7-9,0.2-14.3,9.1-17.1c10-3.2,20.1-6.4,30.2-9.1
		C455.5,441.7,482.9,462.9,482.8,495.2z M459.5,495.4c0-18-12.5-27.8-26-24.3c-5.2,1.3-10.2,3.2-15.4,4.6c-3.4,0.9-4.9,2.5-3.8,6.2
		c3.3,10.2,6.4,20.5,9.6,30.7c0.9,3.1,2.6,4.4,6,3.2c5.7-2,11.6-3.4,17.2-5.7C455.4,506.7,459.5,500.2,459.5,495.4z"/>
	<path class="st1" d="M593.4,407.9c0.1-6.6,3.1-10.6,8.6-12.3c20.1-6.3,40.2-12.5,60.5-18.4c7.2-2.1,13.2,1.4,14.9,7.8
		c1.6,5.9-1.6,11.6-8.6,13.8c-14.5,4.7-29.1,9.2-43.7,13.5c-4.6,1.3-6.3,2.9-4.5,7.9c3.3,9.1,6,18.3,8.6,27.6
		c1.3,4.7,3.3,6.2,8.2,4.5c7.4-2.6,14.9-4.8,22.5-7c7.7-2.2,13.6,0.6,15.6,7.3c1.9,6.2-1.2,11.9-8.6,14.4
		c-7.8,2.7-15.8,5.1-23.8,7.2c-3.9,1.1-5,2.9-3.8,6.8c3.2,9.8,6.3,19.6,9.2,29.5c1.3,4.4,3.6,4.7,7.6,3.5
		c13.2-4.2,26.6-8.1,39.9-12.2c1.7-0.5,3.4-1.1,5.2-1.4c6.7-1.3,11.9,1.6,13.9,7.5c1.9,5.7-0.8,12-7.2,14c-20.7,6.6-41.5,13-62.4,19
		c-7.1,2-12.1-1.8-14.7-10.2c-7.8-25.3-15.5-50.6-23.3-75.9c-4.1-13.5-8.2-27-12.3-40.5C594.4,412,593.8,409.6,593.4,407.9z"/>
	<path class="st1" d="M612.4,542.6c-0.1,5.2-2.5,9.3-7.5,10.9c-20.9,6.5-41.9,13.1-63,19c-7,2-11.5-1.7-14.1-10
		c-7.6-24.6-15.1-49.2-22.7-73.9c-4.5-14.6-9-29.1-13.4-43.7c-3.1-10.2-0.6-15.3,9.5-18.5c19-6,38.1-11.8,57.2-17.6
		c7.3-2.2,13.6,0.5,15.5,6.5c2.3,6.8-1.1,12.9-9,15.4c-14.1,4.5-28.2,8.9-42.4,13c-4.9,1.4-6.6,3.4-4.8,8.6
		c3.3,9.3,6.1,18.7,8.8,28.2c1.1,4.1,3,4.8,6.8,3.6c7.7-2.5,15.4-4.9,23.2-7c8.2-2.2,13.8,0.3,15.9,6.9c2.1,6.5-1.5,12.3-9.7,15
		c-7.2,2.4-14.5,4.6-21.9,6.6c-4.3,1.2-5.8,3.2-4.3,7.7c3.1,9.3,6.1,18.8,8.6,28.3c1.2,4.6,3.1,5.6,7.6,4.1
		c12.6-4.1,25.2-7.9,37.9-11.7c3-0.9,6-1.9,9.1-2.3C606.5,530.9,612.3,536,612.4,542.6z"/>
	<path class="st1" d="M345.1,624c-0.7,6.1-3.3,10.2-9.2,11.5c-5.8,1.2-11.1-1.7-13.2-7.8c-3.5-10.4-6.6-20.9-9.8-31.4
		c-8.8-28.7-17.6-57.4-26.3-86.1c-4.2-13.8-2.1-17.6,11.4-21.8c18.4-5.6,36.8-11.3,55.3-16.7c6.9-2,12.9,1.1,14.7,6.9
		c2,6.5-1,12.1-8,14.8c-1.3,0.5-2.6,0.8-3.8,1.2c-12.9,3.9-25.6,8.2-38.6,11.7c-5.9,1.6-7.6,4-5.4,9.9c3,8.4,5.6,17,7.9,25.7
		c1.4,5,3.6,6.6,8.7,4.7c6.9-2.5,14.1-4.5,21.2-6.5c8.3-2.4,14.6,0.3,16.6,6.8c2,6.5-1.7,12.3-9.8,14.9c-6.8,2.2-13.6,4.6-20.6,6.3
		c-5.6,1.3-7.2,3.4-5.2,9.3c4.5,13.1,8.2,26.5,12.2,39.8C344,619.7,344.6,622,345.1,624z"/>
	<path class="st1" d="M327.7,258.3c6.3,0,11,4.6,11.2,10.9c0.1,6.3-4.5,11.1-10.7,11.3c-6.6,0.2-11.6-4.7-11.5-11.2
		C316.7,263,321.4,258.3,327.7,258.3z"/>
</g>
</svg>
