<?xml version="1.0" encoding="utf-8"?>
<!-- Generator: Adobe Illustrator 23.0.1, SVG Export Plug-In . SVG Version: 6.00 Build 0)  -->
<svg version="1.1" id="Layer_1" xmlns="http://www.w3.org/2000/svg" xmlns:xlink="http://www.w3.org/1999/xlink" x="0px" y="0px"
	 viewBox="0 0 1000 1000" style="enable-background:new 0 0 1000 1000;" xml:space="preserve">
<style type="text/css">
	.st0{fill:#FFBC00;}
	.st1{fill:#FFFFFF;}
</style>
<circle class="st0" cx="509.9" cy="500" r="500"/>
<path class="st1" d="M509.9,242.7c-162.4,0-294.1,107-294.1,239c0,57,24.6,109.1,65.5,150.2c-14.4,57.9-62.4,109.5-63,110.1
	c-2.5,2.6-3.2,6.5-1.7,10c0.5,3.4,4.7,5.5,8.4,5.5c76.2,0,133.3-36.5,161.5-59.1c37.6,14.1,79.3,22.3,123.4,22.3
	c162.4,0,294.1-107,294.1-239S672.3,242.7,509.9,242.7z M408,518.3c-3.9,22.1-24.1,36.9-53.1,36.9c-4.6,0-9.5-0.4-14.5-1.1
	c-8.5-1.4-18-4.8-26.4-7.9c-9.5-3.4-16.2-14.5-12.7-24.1c3.4-9.5,12.2-16.1,21.8-11.8c8,2.9,16.7,6.3,24,7.4
	c13.1,2,23.8-0.4,24.7-5.7c1.2-6.8-12.5-9.6-28.2-14.2c-13.9-4.1-50.9-14.9-44.4-52.8c4.7-26.9,31.4-41.3,66.6-35.7
	c6.8,1,14.3,3.3,21.4,5.7c9.6,3.3,14.7,13.8,11.4,23.4c-3.2,9.7-13.7,14.7-23.3,11.4c-5-1.7-10.3-3.4-15-4.1
	c-12.9-1.9-23.8,0.5-24.7,5.6c-1.2,6.5,10.8,9.2,23.2,12.7C378.2,469.6,414.7,479.9,408,518.3z M583.4,536.8
	c0,10.2-8.2,18.4-18.4,18.4s-18.4-8.3-18.4-18.4v-55.1l-22,29.4c-7,9.3-22.5,9.3-29.4,0l-22-29.4v55.1c0,10.2-8.2,18.4-18.4,18.4
	c-10.2,0-18.4-8.3-18.4-18.4V426.5c0-7.9,5.1-13.9,12.6-17.4c7.5-2.4,15.8,0.1,20.5,6.4l40.4,53.9l40.4-53.9
	c4.8-6.4,13.1-8.8,20.5-6.4c7.5,2.6,12.6,9.6,12.6,17.5V536.8z M720.5,518.3c-3.9,22.1-24.1,36.9-53.1,36.9c-4.6,0-9.5-0.4-14.5-1.1
	c-9.5-1.4-19-4.9-27.4-7.9c-9.5-3.4-16.2-14.5-12.7-24.1c3.4-9.5,12.2-15.1,21.8-11.7c8,2.9,16.7,6.3,24,7.4
	c13.1,2,23.9-0.4,24.8-5.7c1.2-6.8-12.5-9.6-28.2-14.2c-13.9-4.1-50.9-14.9-44.4-52.8c4.6-26.9,31.3-41.3,66.6-35.7
	c6.8,1,14.3,3.3,21.4,5.7c9.6,3.3,14.7,13.8,11.4,23.4c-3.3,9.6-13.7,14.7-23.4,11.4c-5-1.7-10.3-3.4-15-4.1
	c-12.9-1.9-23.8,0.5-24.7,5.6c-0.1,6.5,11.8,9.2,24.2,12.7C690.7,469.6,727.1,479.9,720.5,518.3z"/>
</svg>
