<?xml version="1.0" encoding="utf-8"?>
<!-- Generator: Adobe Illustrator 23.0.1, SVG Export Plug-In . SVG Version: 6.00 Build 0)  -->
<svg version="1.1" id="Layer_1" xmlns="http://www.w3.org/2000/svg" xmlns:xlink="http://www.w3.org/1999/xlink" x="0px" y="0px"
	 viewBox="0 0 1000 1000" style="enable-background:new 0 0 1000 1000;" xml:space="preserve">
<style type="text/css">
	.st0{fill:#2C7DFF;}
	.st1{fill:#FFFFFF;}
</style>
<circle class="st0" cx="505" cy="500" r="500"/>
<g>
	<path class="st1" d="M505,807.6c169.7,0,307.6-137.9,307.6-307.6S674.6,192.4,505,192.4S197.3,330.3,197.3,500
		S335.3,807.6,505,807.6z M266.8,622.5l125-1c13.9,50.1,37.2,98.7,69,142.4C376,750.1,305,696,266.8,622.5z M423.6,415.7h155.8
		c11.4,54.6,11.4,110.6,1,165.2l-156.8,1C412.2,526.8,412.2,470.2,423.6,415.7z M501.5,752.5c-31.3-40.2-54.1-84.3-68-131l136.4-1
		C555.6,667.2,532.7,711.9,501.5,752.5z M541.2,765.4c32.7-44.7,56.1-93.8,70-145.4l133.5-1C705.9,697,630.5,753,541.2,765.4z
		 M772.9,500c0,27.8-4.5,54.6-11.9,79.4l-140.4,1c9.9-54.6,9.4-110.1-1-164.7H759C767.9,442,772.9,470.7,772.9,500z M742.1,376h-132
		c-14.4-49.6-37.2-97.7-69-141.4C629,246.5,702.9,300.5,742.1,376z M569,376H434c14.4-45.6,36.7-88.8,67.5-128.5
		C532.2,287.2,554.6,330.3,569,376z M460.8,236c-31.3,43.2-54.1,90.3-68,139.9h-125C306,303,376.4,249.9,460.8,236z M383.4,415.7
		c-10.4,55.1-10.4,111.1-0.5,166.2l-132.5,1c-8.9-26.3-13.4-54.1-13.4-82.9c0-29.3,5-58,13.9-84.3H383.4z"/>
</g>
</svg>
