<?xml version="1.0" encoding="utf-8"?>
<!-- Generator: Adobe Illustrator 23.0.1, SVG Export Plug-In . SVG Version: 6.00 Build 0)  -->
<svg version="1.1" id="Layer_1" xmlns="http://www.w3.org/2000/svg" xmlns:xlink="http://www.w3.org/1999/xlink" x="0px" y="0px"
	 viewBox="0 0 337.2 328.9" style="enable-background:new 0 0 337.2 328.9;" xml:space="preserve">
<g>
	<path d="M35.6,149.9c8.6,0.1,16.2,2.8,22.6,8.5c20.5,18.5,40.9,37.1,61.4,55.6c5.3,4.8,9,4.7,13.7-0.7
		c25.9-29.2,51.7-58.4,77.6-87.6c24.3-27.5,48.7-55,73-82.5c10.8-12.2,21.5-24.3,32.3-36.5c0.9-1,1.8-2.1,2.8-3.1
		c4.3-4.4,9.8-5,14.1-1.7c4.6,3.5,5.3,9,2.1,14.3c-30.8,49.6-61.6,99.1-92.4,148.7c-30.1,48.5-60.3,97-90.4,145.6
		c-7.3,11.7-17.3,18.5-31.4,18.2c-9.1-0.2-16.9-3.8-22.7-10.7c-8.9-10.4-17.5-21.2-26.2-31.8c-20.9-25.5-41.4-51.3-62.7-76.6
		c-17.5-20.8-8.9-48.4,12.4-57.3C26.1,150.8,30.3,150,35.6,149.9z"/>
</g>
</svg>
